<svg id="ab41cb4f-73c0-4f63-b252-82dd9b9ce13f" xmlns="http://www.w3.org/2000/svg" viewBox="0 0 824.6 543.97"><defs><style>.cls-1{fill:#2f2e41;}.cls-2{fill:#ccc;}.cls-10,.cls-3{fill:#fff;}.cls-10,.cls-4,.cls-5{opacity:0.2;}.cls-10,.cls-5{isolation:isolate;}.cls-6{fill:#d1d3d4;}.cls-7{fill:#f9b499;}.cls-8{fill:#0071f2;}.cls-9{fill:#e6e7e8;}</style></defs><path class="cls-1" d="M731.62,207.3l15.84-17a6.18,6.18,0,0,0,.23-8.27h0a6.18,6.18,0,0,0-8.72-.72l-.43.4-16,15.83Z" transform="translate(-20.58 -69.46)"/><circle class="cls-1" cx="744.95" cy="189.97" r="4.18"/><circle class="cls-1" cx="719.86" cy="264.23" r="4.18"/><polygon class="cls-1" points="714.85 276.56 719.85 290.12 729.78 290.12 719.17 264.23 714.85 276.56"/><path class="cls-2" d="M152.82,178.87H380.75a6,6,0,0,1,6,6V333.15a6,6,0,0,1-6,6h-228A4.78,4.78,0,0,1,148,334.4V183.69a4.82,4.82,0,0,1,4.82-4.82Z" transform="translate(-20.58 -69.46)"/><rect class="cls-3" x="152" y="119.99" width="203.8" height="124.43" rx="2.24"/><path class="cls-2" d="M654.69,339.18h-234V178.87h234a4.78,4.78,0,0,1,4.78,4.78V334.36A4.81,4.81,0,0,1,654.69,339.18Z" transform="translate(-20.58 -69.46)"/><rect class="cls-3" x="411.25" y="120.4" width="203.8" height="124.43" rx="2.24"/><rect class="cls-2" x="535.71" y="129.8" width="69.89" height="51.49"/><g class="cls-4"><rect x="535.71" y="139.81" width="69.89" height="1.32"/></g><path class="cls-5" d="M654.68,339.18H643.82V178.87h11.44a4.24,4.24,0,0,1,4.24,4.24V334.36a4.82,4.82,0,0,1-4.82,4.82Z" transform="translate(-20.58 -69.46)"/><path class="cls-1" d="M611.52,263.46l-5.65-21.19,16,15.42-3.68,2.21,3.82,6a1.53,1.53,0,0,1-.47,2.11l-.06,0h0a1.52,1.52,0,0,1-2-.48l-4.11-6.16Z" transform="translate(-20.58 -69.46)"/><rect class="cls-6" x="403.72" y="424.55" width="15.07" height="111.13"/><path class="cls-1" d="M371.93,428.46s-23-3.39-17.32,25.24L376.83,578h22.23L387.38,477.44" transform="translate(-20.58 -69.46)"/><path class="cls-1" d="M477.79,477.44,466.49,578H491l22.56-133.78a13.64,13.64,0,0,0-11.19-15.71,13.17,13.17,0,0,0-2.26-.19h-6.48" transform="translate(-20.58 -69.46)"/><rect class="cls-2" x="94.81" y="297.89" width="30.37" height="240.99"/><rect class="cls-5" x="94.81" y="297.89" width="30.37" height="240.99"/><rect class="cls-2" x="685.38" y="297.09" width="30.37" height="240.99"/><rect class="cls-5" x="685.38" y="297.09" width="30.37" height="240.99"/><rect class="cls-2" y="297.89" width="824.6" height="26.9"/><path class="cls-7" d="M403.35,189.45h58.17v36.11a22.06,22.06,0,0,1-22.06,22.06h-14a22.06,22.06,0,0,1-22.06-22.06V189.45Z" transform="translate(-20.58 -69.46)"/><ellipse class="cls-7" cx="444.03" cy="141.73" rx="5.37" ry="7.34"/><ellipse class="cls-7" cx="380.46" cy="141.73" rx="5.37" ry="7.34"/><rect class="cls-7" x="399.67" y="171.4" width="25.71" height="12.71"/><path class="cls-8" d="M411.21,267.65V263a12.29,12.29,0,0,1,12.29-12.29h18.08A12.29,12.29,0,0,1,453.87,263h0l.43,4.47" transform="translate(-20.58 -69.46)"/><path class="cls-5" d="M411.21,267.65V263a12.29,12.29,0,0,1,12.29-12.29h18.08A12.29,12.29,0,0,1,453.87,263h0l.43,4.47" transform="translate(-20.58 -69.46)"/><path class="cls-8" d="M371.93,368.57l-6.76,11.94a14.27,14.27,0,0,1-19.45,5.38l-.22-.13h0a14.27,14.27,0,0,1-5.62-18.42l37.71-79s8.66-10.17,16.57-12.06l24.76-12.53a30.64,30.64,0,0,1,13.8-3.29h0a30.54,30.54,0,0,1,13.34,3.07l31.73,15.39s9.42,3,13.94,15.44l35.12,72.87a14,14,0,0,1-4.62,17.59h0a14,14,0,0,1-19.49-3.47l-.24-.35-8.13-12.41" transform="translate(-20.58 -69.46)"/><path class="cls-6" d="M417.14,291h29.39a46.14,46.14,0,0,1,46.14,46.14h0V449.69a11,11,0,0,1-11,11H382a11,11,0,0,1-11-11V337.11A46.14,46.14,0,0,1,417.14,291Z" transform="translate(-20.58 -69.46)"/><rect class="cls-9" x="350.41" y="391.23" width="121.68" height="17.71" rx="6.71"/><path class="cls-6" d="M412.81,478.4h38v10.36a8.86,8.86,0,0,1-8.86,8.86H421.67a8.86,8.86,0,0,1-8.86-8.86V478.4Z" transform="translate(-20.58 -69.46)"/><path class="cls-5" d="M412.81,478.4h38v10.36a8.86,8.86,0,0,1-8.86,8.86H421.67a8.86,8.86,0,0,1-8.86-8.86V478.4Z" transform="translate(-20.58 -69.46)"/><rect class="cls-6" x="393.17" y="435.85" width="13.94" height="2.64"/><rect class="cls-6" x="376.22" y="433.41" width="19.97" height="7.53" rx="2.86"/><rect class="cls-5" x="376.22" y="433.41" width="19.97" height="7.53" rx="2.86"/><g class="cls-4"><polygon points="377.85 503.18 355.29 503.18 355.05 501.86 377.7 501.86 377.85 503.18"/></g><g class="cls-4"><polygon points="471.3 503.18 446.5 503.18 446.66 501.86 471.53 501.86 471.3 503.18"/></g><polygon class="cls-7" points="360.18 508.56 362.53 522.72 380.2 522.72 378.48 508.56 360.18 508.56"/><polygon class="cls-7" points="445.91 508.56 444.41 522.72 461.49 522.72 464.73 508.56 445.91 508.56"/><path class="cls-8" d="M383.11,592.18c1.72,10.31-7.36,9.42-7.36,9.42-12.66-.29-12.08,11.83-12.08,11.83h37.72l-.61-21.25Z" transform="translate(-20.58 -69.46)"/><path class="cls-8" d="M483.27,592.18c-1.72,10.31,7.36,9.42,7.36,9.42,12.66-.29,12.08,11.83,12.08,11.83H465l.61-21.25Z" transform="translate(-20.58 -69.46)"/><path class="cls-9" d="M422,305.86h23.25a36.52,36.52,0,0,1,36.51,36.51h0v97.51a5.19,5.19,0,0,1-5.19,5.19H390.66a5.19,5.19,0,0,1-5.19-5.19h0V342.37A36.52,36.52,0,0,1,422,305.86Z" transform="translate(-20.58 -69.46)"/><path class="cls-5" d="M152.82,178.87h10.86V339.18H152.24a4.24,4.24,0,0,1-4.24-4.24V183.69a4.82,4.82,0,0,1,4.82-4.82Z" transform="translate(-20.58 -69.46)"/><rect class="cls-2" x="160.36" y="190.99" width="56.51" height="41.82"/><g class="cls-4"><rect x="160.36" y="199" width="56.51" height="1.32"/></g><rect class="cls-2" x="293.36" y="128.17" width="56.51" height="41.82"/><g class="cls-4"><rect x="293.36" y="136.18" width="56.51" height="1.32"/></g><rect class="cls-2" x="225.65" y="128.17" width="56.51" height="41.82"/><g class="cls-4"><rect x="225.65" y="136.18" width="56.51" height="1.32"/></g><polygon class="cls-5" points="248.94 144.28 248.94 157.13 259.25 150.7 248.94 144.28"/><g class="cls-4"><rect x="230.71" y="162.55" width="47.18" height="1.32"/></g><rect class="cls-2" x="265.04" y="159.96" width="3.11" height="5.51"/><rect class="cls-5" x="265.04" y="159.96" width="3.11" height="5.51"/><polygon class="cls-1" points="270.36 249.76 274.5 297.89 298.24 297.89 303.51 249.76 270.36 249.76"/><path class="cls-1" d="M297.49,305.86h20.06a4,4,0,0,1,4,4v2.8h-28v-2.8A4,4,0,0,1,297.49,305.86Z" transform="translate(-20.58 -69.46)"/><rect class="cls-2" x="210.19" y="269.72" width="11.7" height="28.17"/><rect class="cls-5" x="210.19" y="269.72" width="11.7" height="28.17"/><rect class="cls-2" x="551.49" y="269.72" width="11.7" height="28.17"/><rect class="cls-5" x="551.49" y="269.72" width="11.7" height="28.17"/><path class="cls-1" d="M539.51,356.51h11.81a8.22,8.22,0,0,1,8.22,8.22v2.62H531.28v-2.62a8.22,8.22,0,0,1,8.22-8.22Z" transform="translate(-20.58 -69.46)"/><path class="cls-1" d="M698.3,353.27h10.84a2.41,2.41,0,0,1,2.41,2.41v3.9H695.89v-3.9A2.41,2.41,0,0,1,698.3,353.27Z" transform="translate(-20.58 -69.46)"/><path class="cls-1" d="M721.15,359.58l35.45-99.13L736.49,201.6l7.41-7.41,21.25,65.38a2.66,2.66,0,0,1,0,1.76l-34.46,98.25Z" transform="translate(-20.58 -69.46)"/><path class="cls-5" d="M721.15,359.58l35.45-99.13L736.49,201.6l7.41-7.41,21.25,65.38a2.66,2.66,0,0,1,0,1.76l-34.46,98.25Z" transform="translate(-20.58 -69.46)"/><circle class="cls-1" cx="710.05" cy="264.23" r="4.18"/><circle class="cls-1" cx="733.95" cy="189.67" r="4.18"/><polygon class="cls-1" points="758.21 240.62 766.12 236.95 790.98 297.89 782.22 297.89 758.21 240.62"/><path class="cls-1" d="M786.7,364.89l38.37-57.83a3.7,3.7,0,0,1,5.14-1l.35.26h0a3.68,3.68,0,0,1,.72,4.82l-36.11,56.24H786.7Z" transform="translate(-20.58 -69.46)"/><path class="cls-1" d="M809.83,322.61l-1.09-.75,10.68-15.49a2.2,2.2,0,0,1,1.47-.93,2.17,2.17,0,0,1,1.69.42l2.22,1.68-.79,1-2.23-1.68a.87.87,0,0,0-.68-.17.93.93,0,0,0-.6.38Z" transform="translate(-20.58 -69.46)"/><polygon class="cls-1" points="758.21 240.62 756.89 227.88 766.12 236.95 758.21 240.62"/><polygon class="cls-10" points="758.21 240.62 756.89 227.88 766.12 236.95 758.21 240.62"/><path class="cls-1" d="M730.62,237.44a19,19,0,0,1-1.72,2.19c-8.31,9-24.18,7.88-35.46-2.52-11-10.14-13.52-25.36-5.92-34.45l.58-.68c5.62-6.09,14.68-7.55,23.43-4.65A33.75,33.75,0,0,1,732,216.7C734.82,224,734.49,231.69,730.62,237.44Z" transform="translate(-20.58 -69.46)"/><path class="cls-5" d="M730.62,237.44a19,19,0,0,1-1.72,2.19c-8.31,9-24.18,7.88-35.46-2.52-11-10.14-13.52-25.36-5.92-34.45l.58-.68c5.62-6.09,14.68-7.55,23.43-4.65A33.75,33.75,0,0,1,732,216.7C734.82,224,734.49,231.69,730.62,237.44Z" transform="translate(-20.58 -69.46)"/><path class="cls-1" d="M730.62,237.44a19,19,0,0,1-1.72,2.19c-8.31,9-24.18,7.88-35.46-2.52-11-10.14-13.52-25.36-5.92-34.45a35.28,35.28,0,0,1,18.94,3.06,43.44,43.44,0,0,1,8.21,4.78,42.79,42.79,0,0,1,9.44,9.46A32.29,32.29,0,0,1,730.62,237.44Z" transform="translate(-20.58 -69.46)"/><path class="cls-10" d="M724.11,220a11.87,11.87,0,1,1-17.65-14.24,43.44,43.44,0,0,1,8.21,4.78A42.79,42.79,0,0,1,724.11,220Z" transform="translate(-20.58 -69.46)"/><path class="cls-1" d="M733.26,212.81A14.4,14.4,0,0,1,732,216.7a33.77,33.77,0,0,0-20.45-19.37,14.74,14.74,0,0,1,21.73,15.48Z" transform="translate(-20.58 -69.46)"/><path class="cls-1" d="M148.32,359h30a6.32,6.32,0,0,1,6.33,6.33v2H142v-2A6.34,6.34,0,0,1,148.32,359Z" transform="translate(-20.58 -69.46)"/><path class="cls-1" d="M127,363.24l-1.31-.13c0-.18,1.9-18.31,22.32-16.73l-.11,1.32C128.86,346.23,127.1,362.54,127,363.24Z" transform="translate(-20.58 -69.46)"/><path class="cls-1" d="M132.29,363.25l-1.31-.14c0-.13,1.51-12.57,16-11.87l-.07,1.32C133.71,351.91,132.34,362.78,132.29,363.25Z" transform="translate(-20.58 -69.46)"/><path class="cls-1" d="M137.85,364.35l-1.32-.05c0-.07.37-6.87,9.19-7.44l.09,1.32C138.15,358.67,137.86,364.12,137.85,364.35Z" transform="translate(-20.58 -69.46)"/><rect class="cls-1" x="17.96" y="268.4" width="76.85" height="14.08"/><path class="cls-1" d="M36.21,329.86h72.68v8H36.21a3,3,0,0,1-3-3v-2a3,3,0,0,1,3-3Z" transform="translate(-20.58 -69.46)"/><path class="cls-5" d="M36.21,329.86h72.68v8H36.21a3,3,0,0,1-3-3v-2a3,3,0,0,1,3-3Z" transform="translate(-20.58 -69.46)"/><path class="cls-1" d="M107.76,367.25H38a7.69,7.69,0,0,1-7.69-7.69h0A7.69,7.69,0,0,1,38,351.87h69.72a9.43,9.43,0,0,0-5.08,8.5C102.74,363.82,104.69,365.65,107.76,367.25Z" transform="translate(-20.58 -69.46)"/><path class="cls-5" d="M107.76,367.25H38a7.69,7.69,0,0,1-7.69-7.69h0A7.69,7.69,0,0,1,38,351.87h69.72a9.43,9.43,0,0,0-5.08,8.5C102.74,363.82,104.69,365.65,107.76,367.25Z" transform="translate(-20.58 -69.46)"/><polyline class="cls-3" points="19.69 293.72 19.69 308.54 24.93 304.37 28.92 308.54 28.92 293.72"/><path class="cls-2" d="M368.17,156.1c-9.05,2.61-12.29,1.17-17.06-.24a25.11,25.11,0,1,1,11.61-8.34A42.67,42.67,0,0,0,368.17,156.1Z" transform="translate(-20.58 -69.46)"/><path class="cls-2" d="M496.74,154.65c9,2.61,12.28,1.17,17.06-.24a25.11,25.11,0,1,0-11.62-8.34A42.63,42.63,0,0,1,496.74,154.65Z" transform="translate(-20.58 -69.46)"/><path class="cls-2" d="M455.81,92.81a23.24,23.24,0,0,1-8.11,17.68,71.62,71.62,0,0,0-10.59,10.94l-4,5.28L428,120.58a65.59,65.59,0,0,0-9.95-9.4,23.35,23.35,0,1,1,37.77-18.37Z" transform="translate(-20.58 -69.46)"/><rect class="cls-6" x="403.72" y="328.87" width="15.07" height="80.07"/><rect class="cls-6" x="392.23" y="308.9" width="38.05" height="19.97" rx="7.57"/><path class="cls-6" d="M395.09,603.26H471.2a7.71,7.71,0,0,1,7.71,7.71h0v2.46H387.38V611a7.71,7.71,0,0,1,7.68-7.74Z" transform="translate(-20.58 -69.46)"/><path class="cls-5" d="M395.09,603.26H471.2a7.71,7.71,0,0,1,7.71,7.71h0v2.46H387.38V611a7.71,7.71,0,0,1,7.68-7.74Z" transform="translate(-20.58 -69.46)"/><path class="cls-1" d="M431.52,242.27a19.29,19.29,0,0,1-16.58-9.15c-4.51-7.47-9.94-20.4-13.05-41.9,0,0-4.49-24.92,21.18-28.56a54,54,0,0,1,15.85,0s5.37,2.76,5.37-2.32V159a1.38,1.38,0,0,1,1.38-1.38,1.42,1.42,0,0,1,.88.32c5.24,4.38,17.8,15.45,18,21,0,0,1.18,33.83-13.8,55.32a19.27,19.27,0,0,1-15.82,8Z" transform="translate(-20.58 -69.46)"/><path class="cls-1" d="M402.62,195.85l3.45,24.84a27.16,27.16,0,0,0,13.86,20.09l6.06,3.31a13.79,13.79,0,0,0,13,.15l6-3.13a27.18,27.18,0,0,0,14.24-19.4l4-22.52Z" transform="translate(-20.58 -69.46)"/><path class="cls-1" d="M690.73,359.58h68.81a5.89,5.89,0,0,1,5.89,5.89h0v1.88h-80.6v-1.88a5.89,5.89,0,0,1,5.89-5.89Z" transform="translate(-20.58 -69.46)"/><rect class="cls-1" x="266.74" y="243.16" width="40.4" height="6.59"/><rect class="cls-5" x="266.74" y="243.16" width="40.4" height="6.59"/><rect class="cls-1" x="17.96" y="293.06" width="13.93" height="1.32"/><path class="cls-3" d="M432.53,105.25h-1.61a11.64,11.64,0,0,1-5.31-1.68,12,12,0,0,1-5.77-8.36c-.09-.46-.13-.92-.19-1.38V92.17a19.35,19.35,0,0,1,.32-2,12.18,12.18,0,0,1,13.77-9.11,11.45,11.45,0,0,1,3.77,1.28c.58.32,1.13.7,1.71,1.06l-2.84,3.69a7.6,7.6,0,0,0-9.52.29,7.52,7.52,0,1,0,12.06,8H431.8v-4.6H444c0,1.19,0,2.37-.1,3.54a11.69,11.69,0,0,1-3,6.8,11.87,11.87,0,0,1-7,3.94C433.46,105.15,433,105.19,432.53,105.25Z" transform="translate(-20.58 -69.46)"/><path class="cls-3" d="M344.36,141.55a8.69,8.69,0,0,1-1.22-.3,4.44,4.44,0,0,1-2.92-3.61,5.78,5.78,0,0,1-.05-.83v-6.09H338a.57.57,0,0,1-.65-.48.43.43,0,0,1,0-.16V126.9a.58.58,0,0,1,.51-.64h.59a1.65,1.65,0,0,0,1.75-1.55v-.95a.57.57,0,0,1,.5-.63H344a.55.55,0,0,1,.63.46.48.48,0,0,1,0,.17v2.5h2.21a.57.57,0,0,1,.64.49.43.43,0,0,1,0,.16v3.17a.56.56,0,0,1-.47.64h-2.38v6.13c0,.25,0,.28.29.21a.87.87,0,0,0,.27-.14l.85-.57a.54.54,0,0,1,.77.1.18.18,0,0,1,.05.07l1.78,2.75a.52.52,0,0,1-.07.73.1.1,0,0,1-.05,0,8.82,8.82,0,0,1-2.09,1.19c-.39.13-.81.2-1.21.29h-.12Z" transform="translate(-20.58 -69.46)"/><path class="cls-3" d="M525.31,120.47l1.07.08.66.06v3.31h-2.36a1.2,1.2,0,0,0-1.25,1.15v.05c-.06,1,0,2,0,3.1h3.32l-.46,3.69H523.4v9.28h-3.7V132h-3v-3.69h3v-3.57a4.29,4.29,0,0,1,3.85-4.27h1.76Z" transform="translate(-20.58 -69.46)"/><rect class="cls-1" x="766.12" y="264.23" width="35.6" height="33.66"/><rect class="cls-1" x="762.73" y="257.86" width="41.53" height="6.37"/><rect class="cls-5" x="762.73" y="257.86" width="41.53" height="6.37"/></svg>